<svg width="517" height="517" viewBox="0 0 517 517" fill="none" xmlns="http://www.w3.org/2000/svg"><path d="m496.334 134.473-.36.21-.08.04-8.4 4.82V16.1428l-19.29-11.22996-37.66 21.59996-.22.13-.13.28-92.94 197.6802-.08.18v22.82l-.07 13.37 19.36 11.18v.06l.43-.25 76.62-43.94v27.08l-.01.42.07.04 18.82 11.55 9.68-5.6 24.98-14.33.44-.25v-49.87l27.7-15.88.43-.25v-35.23l-19.29-11.23Zm-62.82 35.71-28.2 16.17 28.2-60.98v44.81Z" fill="#F5F5F5"/><path d="m453.485 216.312-96.726 55.471.001-35.669 93.308-198.4783 37.378-21.436-.006 146.2783 28.247-16.199-.001 34.36-28.247 16.2-.002 50.069-33.954 19.472.002-50.068Zm.004-115.518.001-18.9803c-1.902 3.7088-3.9 8.0176-5.992 12.9264-1.142 2.3999-2.093 4.3634-2.854 5.8909-.571 1.418-1.617 3.654-3.139 6.708l-51.076 110.448 63.057-36.163.003-80.83Z" fill="url(#a)"/><mask id="b" style="mask-type:alpha" maskUnits="userSpaceOnUse" x="337" y="4" width="180" height="269"><path d="m516.27 144.94-19.54-11.38-8.35 4.79V15.82c.01-.18-.09-.35-.24-.44-.03-.01-.05-.03-.08-.03-.02-.01-.03-.02-.04-.02L468.6 4l-38.13 21.88-.14.07-93.22 198.29-.04.1-.07 36.3v.28l19.74 11.44s.08.02.11.02c.09 0 .17-.02.25-.07l76.31-43.76v26.64c-.01.18.08.34.23.43l19.3 11.31c.16.09.35.09.5 0l34.25-19.64.44-.25c.15-.09.25-.25.25-.43v-49.58l27.88-16c.16-.08.25-.25.25-.43v-35.22c.01-.18-.09-.35-.24-.44Zm-27.89-5.44 8.34-4.78 18.29 10.65-26.63 15.28V139.5ZM468.59 5.16l18.48 10.75-36.84 20.93-18.51-10.53 36.87-21.15ZM356.35 271.02 338 260.36l.07-35.04 18.28 10.65v35.05Zm.29-36.04-18.42-10.73 92.72-197.24 18.51 10.54-92.81 197.43Zm96.05 30.65L434.4 254.9v-26.93l18.29-10.48v48.14Zm62.82-85.32-27.88 15.99c-.15.09-.25.26-.25.44v49.58l-33.69 19.31v-49c0-.18-.09-.34-.25-.43-.15-.09-.34-.09-.5 0l-95.59 54.82V235.8l92.98-197.77.06-.13 37-21.22v144.83c-.01.18.09.35.24.44.16.09.35.09.5 0l27.39-15.71v34.07h-.01Z" fill="red"/><path d="M453.309 83.08c-.22-.06-.45.05-.56.26-1.64 3.3-3.38 7.11-5.19 11.33-1.13 2.38-2.07 4.33-2.85 5.89-.57 1.42-1.62 3.66-3.12 6.68l-50.37 108.91c-.09.2-.05.43.11.58.1.09.22.13.34.13.09 0 .17-.02.25-.07l61.52-35.28c.16-.09.26-.25.26-.43V83.56c0-.23-.16-.43-.39-.48Zm-19.9 44.23v42.37l-26.59 15.13 26.59-57.5Zm-40.62 87.84 13.31-28.78 27.8-15.82 18.4 10.47-59.51 34.13Zm59.91-35.05-18.29-10.41v-44.55l8.08-17.47c1.51-3.02 2.57-5.29 3.13-6.7.76-1.53 1.71-3.48 2.84-5.86 0 0 .03-.05.03-.06 1.45-3.39 2.86-6.52 4.21-9.33v94.38Z" fill="red"/></mask><g mask="url(#b)"><path fill="#D3D3D3" d="M306.543-23.9409h259.252v454.834H306.543z"/></g><path d="M336.311 150.85c-4.16-8.21-9.2-14.2-15.11-17.97-.02-.02-.04-.03-.05-.03l-2.47-1.42-16.9-9.68h-.01c-4.06-2.59-8.53-4.12-13.41-4.61-11.82-1.53-25.25 2.02-40.29 10.65-15.23 8.73-28.76 20.64-40.58 35.73-11.84 14.89-21.27 33.32-28.31 55.24-7.04 21.94-10.55 46.96-10.55 75.03-.01 27.86 3.5 48.74 10.55 62.6 4.43 8.73 10.007 14.667 16.347 18.507l15.839 8.926c3.54 2.03 11.344 6.237 15.474 6.767h.01c11.82 1.32 25.35-2.4 40.57-11.14 15.04-8.62 28.47-20.36 40.29-35.23h.01c12.02-15.22 21.55-33.81 28.59-55.74 7.04-21.94 10.55-46.85 10.55-74.7.01-28.08-3.5-49.07-10.55-62.93Zm-49.45 117.38c-2.64 13.84-7.15 26.34-13.53 37.52-6.35 11.14-14.76 19.72-25.27 25.75-5.49 3.14-10.39 4.97-14.73 5.48-2.07-3.55-3.74-7.87-4.99-12.98-2.64-10.82-3.96-24.15-3.96-39.98 0-15.83 1.32-30.67 3.97-44.53 1.32-7.02 3.1-13.69 5.36-19.99 2.26-6.31 4.98-12.25 8.17-17.85 6.35-11.35 14.85-20.1 25.55-26.24 5.28-3.03 10.02-4.77 14.24-5.23 2.18 3.67 3.91 8.18 5.19 13.55h.01c2.83 10.72 4.24 23.99 4.24 39.82 0 15.83-1.42 30.72-4.25 44.68Z" fill="#F5F5F5"/><path d="M267.642 379.484c-15.213 8.724-28.713 12.443-40.502 11.157-11.789-1.504-21.201-9.156-28.236-22.956-7.035-13.8-10.552-34.62-10.551-62.46.001-28.058 3.52-53.022 10.556-74.891 7.036-21.87 16.449-40.21 28.239-55.018 11.79-15.026 25.291-26.902 40.503-35.626 15.022-8.615 28.427-12.17 40.216-10.666 11.98 1.177 21.487 8.666 28.522 22.466 7.034 13.8 10.551 34.729 10.55 62.786-.001 27.84-3.519 52.695-10.556 74.565-7.036 21.87-16.544 40.373-28.524 55.508-11.79 14.808-25.195 26.52-40.217 35.135Zm.001-35.887c10.648-6.107 19.205-14.821 25.671-26.141 6.465-11.32 11.029-23.942 13.692-37.867 2.853-14.033 4.279-28.988 4.28-44.866.001-15.877-1.425-29.197-4.277-39.959-2.662-11.088-7.225-18.584-13.69-22.489-6.465-4.122-15.021-3.13-25.67 2.977-10.838 6.216-19.49 15.092-25.956 26.63-6.465 11.32-11.029 24.051-13.692 38.193-2.662 13.924-3.994 28.825-3.995 44.703 0 15.877 1.33 29.251 3.992 40.122 2.662 10.871 7.225 18.259 13.69 22.163 6.465 3.905 15.116 2.75 25.955-3.466Z" fill="url(#c)"/><mask id="d" style="mask-type:alpha" maskUnits="userSpaceOnUse" x="168" y="116" width="180" height="276"><path d="M307.143 195.141c-2.663-11.089-7.317-18.698-13.819-22.628-6.533-4.16-15.247-3.19-25.911 2.9-10.765 6.139-19.469 15.029-25.871 26.418-6.413 11.199-11.006 23.978-13.659 37.997-2.654 13.829-3.99 28.837-3.99 44.616s1.336 29.278 4 40.097c2.663 10.869 7.317 18.368 13.82 22.298 2.532 1.53 5.417 2.3 8.623 2.3 5.056 0 10.926-1.9 17.569-5.69 10.574-6.029 19.177-14.748 25.579-25.927 3.207-5.59 5.961-11.56 8.242-17.849 2.282-6.29 4.091-12.909 5.417-19.819 2.845-13.938 4.282-29.007 4.282-44.776 0-15.769-1.437-29.228-4.282-39.937Zm-78.275 129.16c-2.634-10.739-3.97-24.148-3.97-39.857s1.336-30.667 3.97-44.436c2.633-13.899 7.186-26.578 13.558-37.687 6.312-11.23 14.886-19.989 25.489-26.038 5.247-3 10.001-4.72 14.212-5.17 1.95 3.48 3.538 7.729 4.734 12.689 2.824 10.629 4.251 23.978 4.251 39.677 0 15.699-1.437 30.708-4.261 44.596-2.623 13.679-7.186 26.248-13.549 37.357-6.312 11.02-14.794 19.619-25.207 25.558-5.257 3-10.463 4.89-14.644 5.45-1.9-3.39-3.417-7.439-4.583-12.139Zm38.535 18.289c-10.514 5.989-18.976 7.139-25.168 3.399-3.236-1.95-5.99-4.839-8.261-8.629 4.321-.57 9.236-2.43 14.623-5.5.091-.05.171-.1.262-.15l18.845 10.7c-.1.06-.201.12-.301.18Zm38.755-62.936c-2.623 13.699-7.186 26.268-13.548 37.378-6.051 10.559-14.091 18.898-23.921 24.798l-18.845-10.71c10-5.989 18.182-14.458 24.333-25.188 6.412-11.209 11.015-23.878 13.659-37.677 2.251-11.079 3.628-22.858 4.101-35.147l18.342 10.419c-.422 12.639-1.809 24.758-4.121 36.127Zm-14.181-47.676c.09-2.81.141-5.639.141-8.499 0-15.789-1.448-29.218-4.282-39.927-1.166-4.84-2.714-9.049-4.624-12.529.372-.02.724-.03 1.086-.03 3.176 0 6.01.79 8.493 2.37 6.272 3.79 10.774 11.199 13.378 22.028 2.824 10.629 4.251 23.978 4.251 39.687 0 2.46-.04 4.89-.111 7.309l-18.332-10.409Z" fill="red"/><path d="M337.346 151.054c-4.111-8.049-9.106-14.019-14.935-17.858-.081-.06-.171-.12-.252-.17l-1.588-.96-17.93-10.779c-4.141-2.63-8.765-4.21-13.73-4.71-11.92-1.53-25.659 2.07-40.806 10.719-15.297 8.73-29.077 20.789-40.937 35.847-11.86 14.849-21.469 33.488-28.534 55.396-5.448 16.879-8.825 35.807-10.071 56.456-.02.22-.03.45-.05.68-.342 5.879-.513 11.899-.513 18.048 0 27.828 3.588 48.966 10.664 62.815 4.724 9.259 10.604 15.879 17.478 19.679l13.499 7.499c5.035 4.36 10.774 6.969 17.156 7.789l.071-.5-.051.5c1.548.17 3.116.26 4.734.26 10.805 0 23.007-3.849 36.354-11.459 15.106-8.619 28.776-20.518 40.646-35.367 12.05-15.169 21.75-33.967 28.815-55.886C344.422 267.195 348 242.007 348 214.199c0-27.807-3.578-49.286-10.654-63.145Zm-48.545-33.477c4.814.48 9.287 2.01 13.307 4.56l11.89 7.149c-1.859-.54-3.779-.91-5.769-1.11-11.518-1.49-24.695 1.82-39.208 9.809l.02-.04-18.825-10.699c14.312-7.869 27.278-11.129 38.585-9.669ZM179.589 218.849c7.035-21.798 16.573-40.327 28.373-55.086 11.78-14.958 25.449-26.938 40.635-35.607.201-.12.403-.23.604-.34l18.845 10.709-.633.36c-15.298 8.73-29.077 20.799-40.927 35.848-11.87 14.848-21.469 33.487-28.545 55.395-5.347 16.599-8.694 35.177-10 55.426l-18.383-10.439c1.246-20.589 4.613-39.457 10.031-56.266Zm17.036 156.498c-6.694-3.71-12.433-10.19-17.067-19.259-7.005-13.709-10.553-34.697-10.553-62.365 0-5.959.161-11.799.493-17.499l18.372 10.44c-.371 6.069-.552 12.289-.552 18.648-.01 27.838 3.578 48.966 10.654 62.825 2.613 5.12 5.568 9.409 8.864 12.879l-10.211-5.669Zm139.786-86.594c-7.035 21.799-16.674 40.487-28.654 55.576-11.78 14.739-25.359 26.548-40.354 35.107-15.147 8.64-28.756 12.369-40.415 11.089h-.06c-11.649-1.509-21.087-9.189-28.062-22.838-6.995-13.719-10.553-34.697-10.543-62.375 0-27.918 3.558-53.106 10.583-74.874 7.026-21.798 16.574-40.327 28.364-55.086 11.779-14.958 25.458-26.937 40.645-35.597 12.724-7.259 24.414-10.919 34.836-10.919 1.83 0 3.608.11 5.357.33 4.403.44 8.483 1.75 12.232 3.93l1.035.63c5.89 3.739 10.936 9.679 15.077 17.778 6.995 13.719 10.543 34.808 10.543 62.695 0 27.888-3.558 52.786-10.584 74.554Z" fill="red"/></mask><g mask="url(#d)"><path fill="#D3D3D3" d="M34 72h483.089v447.492H34z"/></g><path d="m159.23 328.818-.36.21-.08.04-8.4 4.82v-123.4l-19.29-11.23-37.66 21.6-.22.13-.13.28L.15 418.948l-.08.18v22.82L0 455.318l19.36 11.18v.06l.43-.25 76.62-43.94v27.08l-.01.42.07.04 18.82 11.55 9.68-5.6 24.98-14.33.44-.25v-49.87l27.7-15.88.43-.25v-35.23l-19.29-11.23Zm-62.82 35.71-28.2 16.17 28.2-60.98v44.81Z" fill="#F5F5F5"/><path d="m116.582 410.522-96.7256 55.471.0014-35.669 93.3072-198.478 37.378-21.436-.005 146.278 28.247-16.199-.001 34.36-28.248 16.2-.002 50.069-33.954 19.472.002-50.068Zm.005-115.518v-18.98c-1.902 3.708-3.899 8.017-5.992 12.926-1.141 2.4-2.092 4.363-2.853 5.891-.571 1.418-1.617 3.654-3.139 6.708L53.5264 411.997l63.0576-36.163.003-80.83Z" fill="url(#e)"/><mask id="f" style="mask-type:alpha" maskUnits="userSpaceOnUse" x="0" y="199" width="180" height="269"><path d="m179.27 339.94-19.54-11.38-8.35 4.79V210.82c.01-.18-.09-.35-.24-.44-.03-.01-.05-.03-.08-.03-.02-.01-.03-.02-.04-.02L131.6 199l-38.13 21.88-.14.07L.11 419.24l-.04.1-.07 36.3v.28l19.74 11.44s.08.02.11.02c.09 0 .17-.02.25-.07l76.31-43.76v26.64c-.01.18.08.34.23.43l19.3 11.31c.16.09.35.09.5 0l34.25-19.64.44-.25c.15-.09.25-.25.25-.43v-49.58l27.88-16c.16-.08.25-.25.25-.43v-35.22c.01-.18-.09-.35-.24-.44Zm-27.89-5.44 8.34-4.78 18.29 10.65-26.63 15.28V334.5Zm-19.79-134.34 18.48 10.75-36.84 20.93-18.51-10.53 36.87-21.15ZM19.35 466.02 1 455.36l.07-35.04 18.28 10.65v35.05Zm.29-36.04L1.22 419.25l92.72-197.24 18.51 10.54-92.81 197.43Zm96.05 30.65L97.4 449.9v-26.93l18.29-10.48v48.14Zm62.82-85.32-27.88 15.99c-.15.09-.25.26-.25.44v49.58l-33.69 19.31v-49c0-.18-.09-.34-.25-.43-.15-.09-.34-.09-.5 0l-95.59 54.82V430.8l92.98-197.77.06-.13 37-21.22v144.83c-.01.18.09.35.24.44.16.09.35.09.5 0l27.39-15.71v34.07h-.01Z" fill="red"/><path d="M116.309 278.08c-.22-.06-.45.05-.56.26-1.64 3.3-3.38 7.11-5.19 11.33-1.13 2.38-2.07 4.33-2.85 5.89-.57 1.42-1.62 3.66-3.12 6.68l-50.37 108.91c-.09.2-.05.43.11.58.1.09.22.13.34.13.09 0 .17-.02.25-.07l61.52-35.28c.16-.09.26-.25.26-.43v-97.52c0-.23-.16-.43-.39-.48Zm-19.9 44.23v42.37l-26.59 15.13 26.59-57.5Zm-40.62 87.84 13.31-28.78 27.8-15.82 18.4 10.47-59.51 34.13Zm59.91-35.05-18.29-10.41v-44.55l8.08-17.47c1.51-3.02 2.57-5.29 3.13-6.7.76-1.53 1.71-3.48 2.84-5.86 0 0 .03-.05.03-.06 1.45-3.39 2.86-6.52 4.21-9.33v94.38Z" fill="red"/></mask><g mask="url(#f)"><path fill="#D3D3D3" d="M-111.764 150.896h371.699v462.367h-371.699z"/></g><defs><linearGradient id="a" x1="436.229" y1="45.5719" x2="636.256" y2="189.237" gradientUnits="userSpaceOnUse"><stop stop-color="#F5F5F5"/><stop offset="1" stop-color="#E0E0E0"/></linearGradient><linearGradient id="c" x1="267.651" y1="139.69" x2="473.902" y2="284.287" gradientUnits="userSpaceOnUse"><stop stop-color="#F5F5F5"/><stop offset="1" stop-color="#E0E0E0"/></linearGradient><linearGradient id="e" x1="99.3269" y1="239.782" x2="299.354" y2="383.447" gradientUnits="userSpaceOnUse"><stop stop-color="#F5F5F5"/><stop offset="1" stop-color="#E0E0E0"/></linearGradient></defs></svg>